<svg width="36" height="36" viewBox="0 0 36 36" fill="none" xmlns="http://www.w3.org/2000/svg">
<path d="M21.9 0.53455C21.7879 0.611641 21.4445 0.920003 21.1502 1.23537C20.6245 1.768 20.6035 1.81005 20.6035 2.11841C20.6035 2.37071 20.6456 2.48284 20.7717 2.61599C20.975 2.81923 21.2343 2.89632 21.4936 2.82624C21.7739 2.75616 22.9022 1.62783 22.9863 1.33349C23.0564 1.06718 22.9583 0.730781 22.755 0.562583C22.5588 0.394386 22.1313 0.387378 21.9 0.53455Z" fill="url(#paint0_linear_34717_14622)"/>
<path d="M27.8794 0.51969C27.6341 0.645838 27.543 0.821043 27.543 1.14342C27.543 1.47281 27.7112 1.71109 28.0055 1.8092C28.4961 1.97039 28.9446 1.65502 28.9446 1.14342C28.9446 0.814035 28.8465 0.645838 28.5942 0.512681C28.3419 0.379525 28.1247 0.379525 27.8794 0.51969Z" fill="url(#paint1_linear_34717_14622)"/>
<path d="M32.8686 1.4803C32.6303 1.59944 32.4341 1.99891 32.4901 2.26522C32.5812 2.72075 33.0718 2.96604 33.5063 2.79084C34.0389 2.56657 34.06 1.74661 33.5344 1.49431C33.254 1.36817 33.0998 1.36116 32.8686 1.4803Z" fill="url(#paint2_linear_34717_14622)"/>
<path d="M18.0462 2.46837C17.9341 2.52443 15.7195 4.68998 13.1334 7.28302C8.62012 11.8244 8.42389 12.0276 8.21365 12.4971C7.72307 13.6044 7.77213 14.8099 8.35381 15.8261C8.48697 16.0573 9.04763 16.6951 9.78349 17.438C10.4773 18.1458 11.0099 18.7485 11.038 18.8536C11.066 18.9657 11.045 19.1129 10.9819 19.2321C10.7997 19.5755 9.65033 20.6477 5.39634 24.4392C3.13969 26.4505 1.14234 28.2797 0.960128 28.4969C0.301354 29.2749 0 30.1509 0 31.2442C0 32.0221 0.112132 32.4916 0.448527 33.1714C0.770905 33.8162 1.21242 34.3068 1.86419 34.7413C2.62108 35.2529 3.19575 35.4141 4.20494 35.4141C4.87072 35.4141 5.10199 35.386 5.52949 35.2459C6.6438 34.8814 6.66483 34.8534 11.1711 29.7094C13.4208 27.1373 15.4391 24.8737 15.6494 24.6775C16.0629 24.306 16.2731 24.2219 16.5394 24.32C16.6305 24.3551 17.2683 24.9368 17.9551 25.6095C19.0554 26.6888 19.2726 26.871 19.7282 27.0883C20.7374 27.5648 21.8236 27.5719 22.8538 27.1023C23.3584 26.878 23.4846 26.7589 28.0539 22.2106C30.633 19.6455 32.7845 17.459 32.8406 17.3539C32.8966 17.2487 32.9387 17.0595 32.9387 16.9334C32.9387 16.7231 32.378 16.1414 25.8113 9.57471C20.2678 4.03821 18.6279 2.44033 18.4667 2.4123C18.3546 2.39128 18.1653 2.41931 18.0462 2.46837ZM18.0392 7.29003C17.1071 8.22913 16.2941 9.07012 16.2311 9.16824C15.8106 9.80599 16.6025 10.5979 17.2402 10.1774C17.3384 10.1143 18.1794 9.30139 19.1114 8.3693L20.8144 6.68032L21.7606 7.62642L22.7067 8.56553L20.9266 10.3596C19.1255 12.1748 19.0344 12.2869 19.1185 12.7074C19.1535 12.9246 19.4408 13.219 19.6441 13.247C20.0295 13.3101 20.2187 13.1629 21.9848 11.3969L23.7579 9.62377L24.718 10.5839L25.6852 11.551L23.877 13.3592L22.0759 15.1743V15.4897C22.0759 16.0013 22.4894 16.3306 22.973 16.2115C23.0921 16.1835 23.8 15.5317 24.9493 14.3824L26.7364 12.6023L27.7035 13.5694L28.6637 14.5295L26.9116 16.2816C25.0474 18.1458 24.9423 18.2859 25.0895 18.7275C25.1876 19.0358 25.4259 19.19 25.8043 19.19C26.0987 19.19 26.1127 19.176 27.9068 17.3889L29.7149 15.5808L30.4367 16.3026L31.1516 17.0175L27.7176 20.4515L24.2835 23.8855L17.871 17.473L11.4585 11.0605L14.8925 7.62642L18.3265 4.19239L19.0273 4.89322L19.7282 5.59404L18.0392 7.29003ZM22.8118 25.3292C22.104 25.974 21.3681 26.1422 20.5622 25.8408C20.2117 25.7077 19.9945 25.5254 18.8591 24.4111C18.1443 23.7103 17.4575 23.0866 17.3454 23.0235C17.002 22.8483 16.3712 22.7572 15.9788 22.8343C15.5162 22.9254 15.1728 23.1076 14.7243 23.5071L14.3529 23.8365L12.9092 22.3928L11.4655 20.9491L11.8509 20.5426C12.3275 20.045 12.5097 19.6105 12.5097 18.9798C12.5097 18.1598 12.3976 17.9776 10.9749 16.5269C9.51017 15.0271 9.363 14.8029 9.363 14.039C9.35599 13.4222 9.53119 13.0228 10.0288 12.4901L10.4002 12.1047L16.8127 18.5242L23.2323 24.9438L22.8118 25.3292ZM11.8719 23.458C12.9232 24.5093 13.3156 24.9508 13.2736 25.0138C13.1474 25.2241 6.34946 32.9752 6.07614 33.2275C4.6815 34.503 2.52997 34.0755 1.72402 32.3655C1.52779 31.952 1.50677 31.8469 1.50677 31.2091C1.50677 30.5714 1.52779 30.4663 1.72402 30.0528C1.85718 29.7724 2.08845 29.4571 2.31972 29.2328C2.8103 28.7562 10.3231 22.0073 10.3722 22.0003C10.3932 21.9933 11.066 22.6521 11.8719 23.458Z" fill="url(#paint3_linear_34717_14622)"/>
<path d="M9.22355 25.2233C8.98527 25.2934 8.67691 25.5877 6.54641 27.7883C4.98357 29.4072 4.97656 29.4212 4.97656 29.7226C4.97656 30.2762 5.53021 30.6266 5.99976 30.3814C6.30813 30.2202 10.0155 26.3867 10.0996 26.1344C10.2888 25.5947 9.78421 25.0691 9.22355 25.2233Z" fill="url(#paint4_linear_34717_14622)"/>
<path d="M3.36441 31.0919C2.71264 31.4143 2.97896 32.4375 3.71482 32.4375C4.50675 32.4375 4.69597 31.3162 3.94609 31.0288C3.71482 30.9447 3.64474 30.9447 3.36441 31.0919Z" fill="url(#paint5_linear_34717_14622)"/>
<path d="M25.9648 2.46877C25.6564 2.60893 23.638 4.67636 23.582 4.90763C23.5119 5.17395 23.589 5.43325 23.7922 5.63649C23.9254 5.76965 24.0375 5.80469 24.2898 5.80469H24.6262L25.8036 4.6273C26.9529 3.47795 26.981 3.44291 26.981 3.15558C26.981 2.61594 26.4413 2.25151 25.9648 2.46877Z" fill="url(#paint6_linear_34717_14622)"/>
<path d="M30.9405 3.44805C30.6601 3.58121 26.6584 7.60393 26.5673 7.84922C26.3851 8.3398 26.8547 8.87943 27.3873 8.78131C27.6116 8.73926 27.9339 8.44492 29.7351 6.65782C32.0267 4.37314 32.0898 4.28203 31.8656 3.79846C31.7885 3.63727 31.6553 3.51813 31.5011 3.44805C31.2138 3.32891 31.2068 3.32891 30.9405 3.44805Z" fill="url(#paint7_linear_34717_14622)"/>
<path d="M34.6828 5.58713C34.4095 5.86746 34.3955 6.33001 34.6548 6.59632C35.1313 7.06587 35.8812 6.76452 35.8812 6.10574C35.8812 5.67123 35.6009 5.38389 35.1804 5.38389C34.9491 5.38389 34.844 5.42594 34.6828 5.58713Z" fill="url(#paint8_linear_34717_14622)"/>
<path d="M31.2069 9.04953C29.5319 10.7175 29.5039 10.7525 29.5039 11.0399C29.5039 11.2571 29.553 11.3763 29.7071 11.5445C29.8824 11.7267 29.9594 11.7617 30.2468 11.7617H30.5762L32.146 10.1989C33.015 9.34388 33.7649 8.55896 33.821 8.45383C34.1013 7.9142 33.7579 7.34653 33.1342 7.34653C32.9309 7.34653 32.7347 7.51473 31.2069 9.04953Z" fill="url(#paint9_linear_34717_14622)"/>
<path d="M33.183 12.9678C32.4612 13.6896 32.3701 13.8928 32.5453 14.3133C32.6714 14.6217 33.0219 14.7969 33.3653 14.7268C33.6106 14.6778 34.3674 14.012 34.7038 13.5565C35.1243 12.9748 34.844 12.323 34.1572 12.323C33.8348 12.323 33.8138 12.337 33.183 12.9678Z" fill="url(#paint10_linear_34717_14622)"/>
<defs>
<linearGradient id="paint0_linear_34717_14622" x1="21.8062" y1="2.85156" x2="21.8062" y2="0.429938" gradientUnits="userSpaceOnUse">
<stop offset="0.452535" stop-color="#FFA588"/>
<stop offset="1" stop-color="#F36A3E"/>
</linearGradient>
<linearGradient id="paint1_linear_34717_14622" x1="28.2438" y1="1.85156" x2="28.2438" y2="0.413673" gradientUnits="userSpaceOnUse">
<stop offset="0.452535" stop-color="#FFA588"/>
<stop offset="1" stop-color="#F36A3E"/>
</linearGradient>
<linearGradient id="paint2_linear_34717_14622" x1="33.1989" y1="2.84766" x2="33.1989" y2="1.39515" gradientUnits="userSpaceOnUse">
<stop offset="0.452535" stop-color="#FFA588"/>
<stop offset="1" stop-color="#F36A3E"/>
</linearGradient>
<linearGradient id="paint3_linear_34717_14622" x1="16.4693" y1="35.4141" x2="16.4693" y2="2.40524" gradientUnits="userSpaceOnUse">
<stop offset="0.452535" stop-color="#FFA588"/>
<stop offset="1" stop-color="#F36A3E"/>
</linearGradient>
<linearGradient id="paint4_linear_34717_14622" x1="7.55832" y1="30.4609" x2="7.55832" y2="25.196" gradientUnits="userSpaceOnUse">
<stop offset="0.452535" stop-color="#FFA588"/>
<stop offset="1" stop-color="#F36A3E"/>
</linearGradient>
<linearGradient id="paint5_linear_34717_14622" x1="3.70671" y1="32.4375" x2="3.70671" y2="30.972" gradientUnits="userSpaceOnUse">
<stop offset="0.452535" stop-color="#FFA588"/>
<stop offset="1" stop-color="#F36A3E"/>
</linearGradient>
<linearGradient id="paint6_linear_34717_14622" x1="25.2688" y1="5.80469" x2="25.2688" y2="2.40497" gradientUnits="userSpaceOnUse">
<stop offset="0.452535" stop-color="#FFA588"/>
<stop offset="1" stop-color="#F36A3E"/>
</linearGradient>
<linearGradient id="paint7_linear_34717_14622" x1="29.2393" y1="8.79297" x2="29.2393" y2="3.3587" gradientUnits="userSpaceOnUse">
<stop offset="0.452535" stop-color="#FFA588"/>
<stop offset="1" stop-color="#F36A3E"/>
</linearGradient>
<linearGradient id="paint8_linear_34717_14622" x1="35.175" y1="6.82422" x2="35.175" y2="5.38389" gradientUnits="userSpaceOnUse">
<stop offset="0.452535" stop-color="#FFA588"/>
<stop offset="1" stop-color="#F36A3E"/>
</linearGradient>
<linearGradient id="paint9_linear_34717_14622" x1="31.7118" y1="11.7617" x2="31.7118" y2="7.34653" gradientUnits="userSpaceOnUse">
<stop offset="0.452535" stop-color="#FFA588"/>
<stop offset="1" stop-color="#F36A3E"/>
</linearGradient>
<linearGradient id="paint10_linear_34717_14622" x1="33.6853" y1="14.7422" x2="33.6853" y2="12.323" gradientUnits="userSpaceOnUse">
<stop offset="0.452535" stop-color="#FFA588"/>
<stop offset="1" stop-color="#F36A3E"/>
</linearGradient>
</defs>
</svg>
