<svg width="47" height="36" viewBox="0 0 47 36" fill="none" xmlns="http://www.w3.org/2000/svg">
<path d="M46.5021 3.60841C46.1558 2.68785 45.6454 2.04073 44.8889 1.55767C43.9045 0.92878 44.4787 0.965237 34.6899 0.965237C26.4414 0.965237 25.8307 0.983466 25.6484 1.1293C25.5391 1.21133 25.4023 1.37538 25.3477 1.48476C25.2018 1.7673 25.2018 35.1624 25.3477 35.4449C25.4023 35.5543 25.5391 35.7184 25.6484 35.8004C25.8216 35.9462 26.25 35.9645 31.0897 35.9645H36.3396L36.6951 35.7001C37.1143 35.3811 46.3016 26.1756 46.5204 25.8475C46.6571 25.647 46.6662 24.6717 46.6571 14.8191C46.6571 4.95734 46.6388 3.9821 46.5021 3.60841ZM41.3981 24.298C37.7888 24.298 37.6794 24.3163 36.7771 24.8905C36.0024 25.3918 35.4464 26.1027 35.1547 26.9777C35.018 27.3696 34.9998 27.8891 34.9998 30.6963V33.9593H31.1262H27.2526L27.2526 18.4648L27.2526 2.9704L35.1821 2.9704C43.859 2.9704 43.467 2.94306 44.0595 3.49903C44.2053 3.63575 44.3967 3.90918 44.4878 4.1097C44.6519 4.45604 44.661 4.92999 44.661 14.3907L44.661 24.298H41.3981ZM37.0232 30.2497C36.9958 27.7615 37.0323 27.4881 37.488 26.9686C38.0349 26.3397 38.2172 26.3032 40.8786 26.3032H43.2483L40.1494 29.4021L37.0505 32.501L37.0232 30.2497Z" fill="url(#paint0_linear_34717_14637)"/>
<path d="M34.882 17.9462C34.7726 17.7457 31.0904 14.9203 30.6256 14.6833C29.7233 14.2185 28.8392 15.0934 29.2676 16.0322C29.3222 16.1507 30.0149 16.734 30.817 17.3356C31.6099 17.928 32.2662 18.4384 32.2662 18.4658C32.2662 18.4931 31.5917 19.0126 30.7714 19.6324C29.942 20.2522 29.2493 20.8173 29.222 20.8993C29.1217 21.1363 29.1673 21.8016 29.2858 21.9475C29.6321 22.3758 30.1516 22.4943 30.6256 22.2482C31.0904 22.0113 34.7726 19.1858 34.882 18.9853C34.9458 18.8759 34.9914 18.6389 34.9914 18.4658C34.9914 18.2926 34.9458 18.0556 34.882 17.9462Z" fill="url(#paint1_linear_34717_14637)"/>
<path d="M21.3101 1.46613C21.2554 1.36588 21.1278 1.21093 21.0185 1.1289C20.8362 0.983073 20.2255 0.964844 11.977 0.964844C3.96547 0.964844 3.09049 0.983073 2.68034 1.11979C1.80536 1.41145 1.09444 1.96743 0.593147 2.74215C-0.0448598 3.73561 0.000712061 2.53252 0.000712061 18.4644C0.000712061 31.6256 0.00982644 32.8743 0.155656 33.2844C0.447317 34.1594 1.00329 34.8703 1.77802 35.3716C2.75325 36.0005 2.17905 35.9641 11.977 35.9641C20.2255 35.9641 20.8362 35.9458 21.0185 35.8C21.1278 35.718 21.2646 35.5539 21.3192 35.4445C21.4651 35.162 21.456 1.73045 21.3101 1.46613ZM11.4666 33.9589C3.91989 33.9589 3.49152 33.9498 3.14517 33.7857C2.69857 33.5761 2.33399 33.2024 2.15171 32.7558C2.0241 32.455 2.00588 30.8691 2.00588 18.4644C2.00588 6.05978 2.0241 4.47388 2.15171 4.1731C2.33399 3.7265 2.69857 3.35281 3.14517 3.14318C3.49152 2.97912 3.91989 2.97001 11.4666 2.97001L19.4143 2.97001L19.4143 18.4644L19.4143 33.9589L11.4666 33.9589Z" fill="url(#paint2_linear_34717_14637)"/>
<path d="M17.4283 15.0664C17.328 14.8294 16.8632 14.5469 16.5624 14.5469C16.4257 14.5469 16.1887 14.6107 16.0429 14.6836C15.6692 14.875 12.0234 17.6275 11.832 17.8645C11.7318 17.983 11.668 18.2109 11.668 18.4661C11.668 18.7213 11.7318 18.9491 11.832 19.0676C12.0234 19.3046 15.6692 22.0571 16.0429 22.2485C16.9452 22.7134 17.8293 21.8384 17.4009 20.8996C17.3462 20.7811 16.6535 20.1978 15.8515 19.5962C15.0585 19.0038 14.4023 18.4934 14.4023 18.4661C14.4023 18.4387 15.0585 17.9283 15.8515 17.3359C16.6535 16.7343 17.3462 16.151 17.4009 16.0325C17.5103 15.7864 17.5194 15.3125 17.4283 15.0664Z" fill="url(#paint3_linear_34717_14637)"/>
<defs>
<linearGradient id="paint0_linear_34717_14637" x1="25.2383" y1="18.4646" x2="46.6596" y2="18.4646" gradientUnits="userSpaceOnUse">
<stop offset="0.452535" stop-color="#FFA588"/>
<stop offset="1" stop-color="#F36A3E"/>
</linearGradient>
<linearGradient id="paint1_linear_34717_14637" x1="29.1562" y1="18.4648" x2="34.9914" y2="18.4648" gradientUnits="userSpaceOnUse">
<stop offset="0.452535" stop-color="#FFA588"/>
<stop offset="1" stop-color="#F36A3E"/>
</linearGradient>
<linearGradient id="paint2_linear_34717_14637" x1="0" y1="18.4646" x2="21.4242" y2="18.4646" gradientUnits="userSpaceOnUse">
<stop offset="0.452535" stop-color="#FFA588"/>
<stop offset="1" stop-color="#F36A3E"/>
</linearGradient>
<linearGradient id="paint3_linear_34717_14637" x1="11.668" y1="18.462" x2="17.5122" y2="18.462" gradientUnits="userSpaceOnUse">
<stop offset="0.452535" stop-color="#FFA588"/>
<stop offset="1" stop-color="#F36A3E"/>
</linearGradient>
</defs>
</svg>
