<svg width="15" height="15" viewBox="0 0 15 15" fill="none" xmlns="http://www.w3.org/2000/svg">
<path d="M12.0179 9.53711L10.4304 9.35586C10.2438 9.33394 10.0546 9.3546 9.87702 9.41631C9.69949 9.47801 9.53825 9.57914 9.40542 9.71211L8.25542 10.8621C6.48116 9.95975 5.03903 8.51762 4.13667 6.74336L5.29292 5.58711C5.56167 5.31836 5.69292 4.94336 5.64917 4.56211L5.46792 2.98711C5.43249 2.68222 5.28617 2.40101 5.05682 2.19701C4.82747 1.99302 4.53111 1.8805 4.22417 1.88086H3.14292C2.43667 1.88086 1.84917 2.46836 1.89292 3.17461C2.22417 8.51211 6.49292 12.7746 11.8242 13.1059C12.5304 13.1496 13.1179 12.5621 13.1179 11.8559V10.7746C13.1242 10.1434 12.6492 9.61211 12.0179 9.53711Z" fill="#FAFAFA"/>
</svg>
