<svg width="45" height="33" viewBox="0 0 45 33" fill="none" xmlns="http://www.w3.org/2000/svg">
<path d="M21.6827 0.204326C21.3561 0.307456 20.9608 0.462152 20.8233 0.530905C20.342 0.78873 19.5341 1.44189 19.2763 1.79425L19.0185 2.13801L10.854 2.1638L2.68956 2.18958L2.19969 2.42162C1.60669 2.69664 1.03088 3.25526 0.747276 3.82247C0.566798 4.19202 0.541016 4.3725 0.541016 5.15457C0.541016 5.9968 0.558204 6.09133 0.798841 6.51245C1.12542 7.11404 1.76139 7.68125 2.35439 7.89611C2.81847 8.07658 2.96457 8.07658 10.854 8.07658H18.881L19.5513 8.74693C21.1928 10.3798 23.4617 10.758 25.5758 9.74385C26.0657 9.50322 26.3923 9.26258 26.8993 8.75552L27.5783 8.07658H34.8747C42.0251 8.07658 42.1798 8.07658 42.6438 7.89611C43.2368 7.68125 43.8728 7.11404 44.1994 6.51245C44.44 6.09133 44.4572 5.9968 44.4572 5.15457C44.4572 4.3725 44.4314 4.19202 44.251 3.82247C43.9674 3.25526 43.3915 2.69664 42.7985 2.42162L42.3087 2.18958L34.8747 2.1638L27.4408 2.13801L27.2001 1.80284C26.736 1.14109 25.5329 0.384804 24.5359 0.118384C23.814 -0.0706873 22.396 -0.0277166 21.6827 0.204326ZM24.768 1.88019C26.2032 2.58491 27.054 4.16624 26.7962 5.65303C26.4524 7.63828 24.5875 9.02194 22.6968 8.70396C20.3678 8.30003 18.9841 5.83351 19.9123 3.72794C20.3334 2.79117 21.1326 2.04348 22.0866 1.69971C22.439 1.57939 22.7312 1.54502 23.3671 1.5708C24.0976 1.58799 24.2523 1.62236 24.768 1.88019ZM18.1848 4.01154C18.0731 4.41547 18.0473 5.47255 18.1419 6.07414L18.2106 6.52963H10.6134H3.01614L2.72393 6.33197C2.22547 5.9968 2.02781 5.61865 2.06218 5.06003C2.10515 4.47563 2.36298 4.0803 2.85285 3.85685C3.18802 3.70215 3.57476 3.69356 10.7423 3.69356H18.2708L18.1848 4.01154ZM42.154 3.87404C42.661 4.12327 42.8931 4.47563 42.936 5.06003C42.9704 5.61865 42.7728 5.9968 42.2743 6.33197L41.9821 6.52963H35.1154H28.2486L28.3174 6.07414C28.4033 5.49833 28.4033 4.8108 28.3174 4.18343L28.2486 3.69356H35.0122C41.6985 3.69356 41.7844 3.69356 42.154 3.87404Z" fill="url(#paint0_linear_34717_14615)"/>
<path d="M11.5931 11.137C10.7767 11.3519 9.95163 11.8503 9.28988 12.5121L8.6711 13.1394L5.68033 13.1652L2.68956 13.191L2.19969 13.4231C1.60669 13.6981 1.03088 14.2567 0.747276 14.8239C0.566798 15.1935 0.541016 15.3739 0.541016 16.156C0.541016 16.9982 0.558204 17.0928 0.798841 17.5139C1.12542 18.1155 1.76139 18.6827 2.35439 18.8975C2.79269 19.0694 3.00754 19.078 5.76627 19.078H8.70548L8.99768 19.439C9.90007 20.5648 11.4814 21.3125 12.9596 21.3125C14.4206 21.3125 16.1394 20.5132 16.9301 19.4648L17.2137 19.0866L29.6924 19.078C42.068 19.078 42.1798 19.078 42.6438 18.8975C43.2368 18.6827 43.8728 18.1155 44.1994 17.5139C44.44 17.0928 44.4572 16.9982 44.4572 16.156C44.4572 15.3739 44.4314 15.1935 44.251 14.8239C43.9674 14.2567 43.3915 13.6981 42.7985 13.4231L42.3087 13.191L29.787 13.1652L17.2739 13.148L16.6379 12.5121C15.959 11.8245 15.1511 11.3519 14.2745 11.1284C13.6557 10.9651 12.2119 10.9737 11.5931 11.137ZM14.137 12.7269C16.7582 13.7067 17.4114 17.0154 15.3316 18.846C14.5667 19.5249 13.3635 19.8687 12.3838 19.6882C9.53911 19.164 8.3789 15.795 10.3212 13.6895C11.2665 12.6668 12.8736 12.2628 14.137 12.7269ZM7.91481 15.013C7.82887 15.4169 7.82887 16.8779 7.90622 17.2475L7.97497 17.5311H5.49126C3.05911 17.5311 3.00754 17.5311 2.72393 17.3334C2.22547 16.9982 2.02781 16.6201 2.06218 16.0615C2.10515 15.4771 2.36298 15.0817 2.85285 14.8583C3.17083 14.7122 3.45444 14.695 5.59439 14.695H7.98357L7.91481 15.013ZM42.154 14.8755C42.661 15.1247 42.8931 15.4771 42.936 16.0615C42.9704 16.6201 42.7728 16.9982 42.2743 17.3334L41.9821 17.5311H29.9589H17.9442L18.0044 17.2904C18.0903 16.9982 18.0903 15.3481 18.013 14.97L17.9528 14.695H29.8643C41.7672 14.695 41.7844 14.695 42.154 14.8755Z" fill="url(#paint1_linear_34717_14615)"/>
<path d="M30.7839 22.8589C29.6752 23.1425 28.6268 23.7956 28.0681 24.5347L27.7845 24.9129L15.3058 24.9215C2.93019 24.9215 2.81847 24.9215 2.35439 25.102C1.76139 25.3168 1.12542 25.884 0.798841 26.4856C0.558204 26.9067 0.541016 27.0013 0.541016 27.8435C0.541016 28.6256 0.566798 28.806 0.747276 29.1756C1.03088 29.7428 1.60669 30.3014 2.19969 30.5764L2.68956 30.8085L15.2113 30.8343L27.7244 30.8515L28.3603 31.4788C29.426 32.5359 30.5433 33 32.0215 33C33.5168 33 34.6599 32.5273 35.7084 31.4788L36.3357 30.8601L39.3179 30.8343L42.3087 30.8085L42.7985 30.5764C43.3915 30.3014 43.9674 29.7428 44.251 29.1756C44.4314 28.806 44.4572 28.6256 44.4572 27.8435C44.4572 27.0013 44.44 26.9067 44.1994 26.4856C43.8728 25.884 43.2368 25.3168 42.6438 25.102C42.2055 24.9301 41.9907 24.9215 39.232 24.9215H36.2928L36.0006 24.5519C34.806 23.0651 32.6574 22.369 30.7839 22.8589ZM32.7434 24.3285C34.8146 24.7582 36.0951 26.8981 35.4763 28.892C35.1583 29.9233 34.5052 30.671 33.5082 31.1351C32.7863 31.4788 31.7121 31.5562 30.9987 31.3241C28.6354 30.5593 27.6814 27.7662 29.108 25.7723C29.4948 25.2309 29.8128 24.9645 30.4659 24.6293C31.2394 24.2425 31.9011 24.1566 32.7434 24.3285ZM26.9853 26.7434C26.9079 27.113 26.9079 28.6599 26.9853 29.0209L27.054 29.3045H15.1253C3.68648 29.3045 3.18802 29.2959 2.85285 29.1412C2.36298 28.9178 2.10515 28.5224 2.06218 27.938C2.02781 27.3794 2.22547 27.0013 2.72393 26.6661L3.01614 26.4684H15.0308H27.0454L26.9853 26.7434ZM42.2743 26.6661C42.7728 27.0013 42.9704 27.3794 42.936 27.938C42.8931 28.5224 42.6353 28.9178 42.1454 29.1412C41.8274 29.2873 41.5438 29.3045 39.4038 29.3045H37.0147L37.0834 28.9779C37.1694 28.5826 37.1694 27.1216 37.092 26.7434L37.0319 26.4684H39.507C41.9391 26.4684 41.9907 26.4684 42.2743 26.6661Z" fill="url(#paint2_linear_34717_14615)"/>
<defs>
<linearGradient id="paint0_linear_34717_14615" x1="22.4991" y1="10.3047" x2="22.4991" y2="-0.000243187" gradientUnits="userSpaceOnUse">
<stop offset="0.452535" stop-color="#FFA588"/>
<stop offset="1" stop-color="#F36A3E"/>
</linearGradient>
<linearGradient id="paint1_linear_34717_14615" x1="22.4991" y1="21.3125" x2="22.4991" y2="11.0102" gradientUnits="userSpaceOnUse">
<stop offset="0.452535" stop-color="#FFA588"/>
<stop offset="1" stop-color="#F36A3E"/>
</linearGradient>
<linearGradient id="paint2_linear_34717_14615" x1="22.4991" y1="33" x2="22.4991" y2="22.7035" gradientUnits="userSpaceOnUse">
<stop offset="0.452535" stop-color="#FFA588"/>
<stop offset="1" stop-color="#F36A3E"/>
</linearGradient>
</defs>
</svg>
